<svg id="svg" version="1.1" xmlns="http://www.w3.org/2000/svg" xmlns:xlink="http://www.w3.org/1999/xlink" width="400" height="266.1818181818182" viewBox="0, 0, 400,266.1818181818182"><g id="svgg"><path id="path0" d="M129.694 65.157 C 127.912 65.475,127.240 65.850,126.872 66.732 C 126.307 68.082,126.312 173.473,126.876 174.824 C 127.583 176.514,127.903 176.568,137.204 176.538 C 146.522 176.508,146.627 176.495,147.467 175.249 L 148.069 174.355 148.081 134.914 C 148.087 113.221,148.193 94.954,148.315 94.319 C 148.777 91.929,149.436 92.195,149.918 94.966 C 150.077 95.874,150.432 97.139,150.709 97.776 C 150.986 98.413,151.298 99.474,151.404 100.133 C 151.509 100.792,151.806 101.751,152.063 102.264 C 152.320 102.776,152.665 103.829,152.829 104.603 C 152.993 105.376,153.352 106.455,153.626 106.999 C 153.900 107.544,154.208 108.561,154.310 109.259 C 154.411 109.957,154.721 111.041,154.998 111.667 C 155.275 112.293,155.585 113.340,155.686 113.993 C 155.788 114.646,156.141 115.719,156.472 116.378 C 156.803 117.037,157.153 118.152,157.250 118.855 C 157.347 119.557,157.717 120.756,158.072 121.518 C 158.426 122.279,158.719 123.262,158.722 123.702 C 158.724 124.141,159.021 125.100,159.382 125.832 C 159.742 126.565,160.043 127.523,160.051 127.963 C 160.059 128.402,160.310 129.301,160.610 129.960 C 160.910 130.619,161.334 131.937,161.554 132.889 C 161.773 133.842,162.116 134.873,162.316 135.182 C 162.516 135.491,162.813 136.479,162.976 137.377 C 163.138 138.276,163.565 139.641,163.924 140.411 C 164.282 141.181,164.578 142.170,164.580 142.610 C 164.583 143.049,164.880 144.008,165.240 144.740 C 165.601 145.473,165.902 146.491,165.910 147.004 C 165.917 147.517,166.155 148.445,166.437 149.066 C 166.719 149.688,167.092 150.946,167.266 151.863 C 167.439 152.779,167.798 153.891,168.063 154.334 C 168.328 154.777,168.663 155.875,168.808 156.775 C 168.953 157.675,169.264 158.783,169.499 159.239 C 169.735 159.694,170.054 160.750,170.208 161.586 C 170.363 162.421,170.671 163.458,170.895 163.889 C 171.118 164.320,171.525 165.616,171.800 166.768 C 172.075 167.919,172.465 169.187,172.667 169.584 C 172.868 169.981,173.119 170.896,173.224 171.616 C 173.425 172.994,174.609 175.360,175.504 176.169 C 176.203 176.802,176.170 177.339,175.366 178.429 C 175.000 178.925,174.700 179.521,174.700 179.752 C 174.700 179.984,174.345 180.889,173.910 181.764 C 173.475 182.640,173.115 183.508,173.111 183.693 C 173.106 183.879,172.743 184.705,172.304 185.529 C 171.864 186.352,171.505 187.200,171.505 187.413 C 171.505 187.626,171.270 188.131,170.982 188.534 C 170.695 188.938,170.346 189.774,170.207 190.392 C 170.069 191.010,169.780 191.717,169.567 191.963 C 168.990 192.630,168.799 194.307,169.257 194.687 C 169.556 194.935,169.670 194.898,169.810 194.504 C 170.340 193.006,170.706 192.277,170.926 192.277 C 171.062 192.277,171.423 191.696,171.728 190.987 C 172.033 190.277,172.467 189.543,172.693 189.356 C 172.918 189.169,173.103 188.867,173.103 188.685 C 173.103 188.503,173.320 188.068,173.587 187.719 C 173.853 187.370,174.231 186.664,174.428 186.152 C 174.625 185.639,175.041 184.920,175.354 184.554 C 175.666 184.188,176.127 183.469,176.378 182.956 C 176.628 182.443,177.189 181.425,177.624 180.692 C 178.060 179.960,178.580 179.001,178.780 178.562 C 178.981 178.123,179.337 177.604,179.572 177.409 C 179.807 177.214,180.143 176.615,180.318 176.077 C 180.493 175.540,180.919 174.761,181.264 174.347 C 181.609 173.933,181.891 173.433,181.891 173.236 C 181.891 173.038,182.180 172.533,182.534 172.112 C 182.888 171.692,183.264 170.874,183.369 170.294 C 183.475 169.715,183.781 168.803,184.050 168.267 C 184.320 167.731,184.619 166.772,184.715 166.136 C 184.812 165.500,185.175 164.295,185.521 163.457 C 185.868 162.619,186.152 161.596,186.152 161.183 C 186.152 160.770,186.397 159.957,186.696 159.377 C 186.996 158.797,187.415 157.509,187.627 156.514 C 187.839 155.520,188.184 154.376,188.392 153.973 C 188.601 153.570,188.909 152.479,189.078 151.549 C 189.247 150.619,189.556 149.596,189.766 149.276 C 189.976 148.956,190.278 147.988,190.438 147.125 C 190.597 146.262,190.961 145.098,191.247 144.538 C 191.533 143.978,191.893 142.838,192.047 142.005 C 192.201 141.172,192.490 140.173,192.691 139.786 C 192.891 139.399,193.236 138.212,193.458 137.148 C 193.680 136.084,194.052 134.922,194.285 134.566 C 194.518 134.211,194.825 133.198,194.967 132.315 C 195.110 131.433,195.404 130.438,195.623 130.105 C 195.841 129.772,196.150 128.734,196.310 127.799 C 196.470 126.864,196.816 125.739,197.079 125.300 C 197.341 124.860,197.643 123.901,197.748 123.169 C 197.853 122.437,198.165 121.391,198.440 120.845 C 198.715 120.299,199.118 119.006,199.335 117.972 C 199.553 116.937,199.908 115.749,200.124 115.331 C 200.340 114.912,200.598 114.048,200.696 113.410 C 200.794 112.772,201.140 111.711,201.466 111.052 C 201.791 110.393,202.141 109.196,202.244 108.392 C 202.348 107.588,202.651 106.569,202.919 106.128 C 203.187 105.687,203.492 104.787,203.598 104.128 C 203.704 103.469,204.076 102.166,204.425 101.233 C 204.774 100.300,205.060 99.198,205.060 98.784 C 205.060 98.370,205.353 97.480,205.711 96.806 C 206.069 96.132,206.438 95.017,206.529 94.328 C 206.621 93.640,206.827 92.735,206.987 92.317 L 207.277 91.559 207.624 92.184 C 207.898 92.678,207.972 96.206,207.980 108.971 C 207.991 128.325,208.010 128.444,210.315 124.090 C 210.971 122.851,211.661 121.658,211.848 121.438 C 212.034 121.218,212.278 120.739,212.388 120.373 C 212.499 120.007,212.864 119.378,213.200 118.976 C 213.536 118.574,213.894 117.975,213.994 117.645 C 214.095 117.314,214.349 116.849,214.558 116.610 C 214.767 116.371,215.155 115.772,215.420 115.278 C 216.772 112.758,217.384 111.705,217.566 111.585 C 217.677 111.511,218.028 110.912,218.346 110.253 C 219.511 107.841,220.218 106.570,220.484 106.405 C 220.634 106.312,221.001 105.732,221.298 105.115 C 221.596 104.499,222.190 103.395,222.619 102.663 C 223.048 101.931,223.612 100.912,223.873 100.399 C 224.133 99.887,224.531 99.246,224.756 98.975 C 224.982 98.704,225.406 98.016,225.699 97.447 C 227.133 94.662,228.873 91.708,229.261 91.400 C 229.649 91.091,229.694 89.820,229.694 79.105 L 229.694 67.154 229.056 66.475 C 227.669 64.999,227.094 64.948,212.878 65.046 C 203.500 65.112,199.594 65.228,198.890 65.464 C 197.849 65.813,196.538 67.609,196.538 68.685 C 196.538 68.987,196.178 70.315,195.739 71.638 C 195.300 72.960,194.940 74.312,194.940 74.642 C 194.940 74.971,194.694 75.699,194.394 76.260 C 194.094 76.820,193.723 77.953,193.571 78.777 C 193.418 79.602,193.076 80.702,192.811 81.223 C 192.545 81.744,192.243 82.766,192.140 83.495 C 192.038 84.224,191.730 85.300,191.456 85.885 C 191.183 86.471,190.767 87.724,190.531 88.670 C 190.296 89.616,189.945 90.696,189.751 91.070 C 189.558 91.445,189.313 92.349,189.208 93.079 C 189.102 93.810,188.786 94.921,188.505 95.548 C 188.224 96.175,187.869 97.374,187.716 98.211 C 187.562 99.049,187.212 100.153,186.937 100.666 C 186.662 101.178,186.317 102.284,186.171 103.123 C 186.025 103.962,185.728 104.921,185.511 105.253 C 185.294 105.586,184.999 106.596,184.854 107.496 C 184.710 108.397,184.361 109.595,184.078 110.160 C 183.796 110.724,183.493 111.730,183.406 112.397 C 183.319 113.063,182.943 114.262,182.572 115.060 C 182.200 115.858,181.895 116.778,181.893 117.104 C 181.892 117.431,181.610 118.449,181.266 119.368 C 180.923 120.287,180.569 121.588,180.479 122.260 C 180.389 122.931,180.011 124.087,179.638 124.828 C 179.266 125.569,178.961 126.465,178.961 126.819 C 178.961 127.845,178.320 128.558,177.792 128.120 C 177.556 127.924,177.364 127.593,177.364 127.383 C 177.364 127.173,177.119 126.465,176.820 125.809 C 176.521 125.153,176.152 123.942,176.000 123.119 C 175.848 122.295,175.550 121.357,175.338 121.033 C 175.127 120.710,174.772 119.575,174.550 118.511 C 174.328 117.448,173.981 116.258,173.779 115.867 C 173.578 115.477,173.277 114.410,173.111 113.497 C 172.946 112.584,172.586 111.451,172.311 110.979 C 172.036 110.506,171.687 109.434,171.535 108.595 C 171.383 107.757,171.084 106.733,170.871 106.320 C 170.657 105.908,170.344 104.803,170.174 103.865 C 170.004 102.927,169.650 101.733,169.388 101.213 C 169.126 100.692,168.827 99.667,168.723 98.935 C 168.619 98.202,168.362 97.336,168.152 97.009 C 167.943 96.683,167.588 95.604,167.365 94.613 C 167.142 93.621,166.723 92.248,166.435 91.562 C 166.148 90.876,165.912 90.064,165.912 89.758 C 165.912 89.451,165.659 88.515,165.350 87.676 C 165.040 86.838,164.638 85.414,164.455 84.512 C 164.272 83.611,163.881 82.472,163.586 81.982 C 163.290 81.493,162.968 80.445,162.868 79.655 C 162.769 78.865,162.466 77.784,162.195 77.252 C 161.924 76.721,161.618 75.689,161.515 74.960 C 161.413 74.232,161.054 73.036,160.719 72.304 C 160.383 71.571,159.984 70.300,159.831 69.479 C 159.517 67.788,158.239 65.687,157.326 65.361 C 156.702 65.138,130.871 64.948,129.694 65.157 M244.712 72.159 C 244.536 72.747,244.126 73.403,243.800 73.616 C 243.474 73.829,243.125 74.332,243.025 74.734 C 242.924 75.135,242.550 75.810,242.193 76.234 C 241.836 76.658,241.545 77.166,241.545 77.364 C 241.545 77.561,241.261 78.061,240.915 78.475 C 240.569 78.889,240.196 79.527,240.086 79.893 C 239.976 80.260,239.677 80.799,239.422 81.092 C 239.166 81.385,238.743 82.044,238.481 82.557 C 238.218 83.069,237.760 83.968,237.462 84.554 C 237.164 85.140,236.642 85.958,236.303 86.372 C 235.963 86.786,235.686 87.286,235.686 87.483 C 235.686 87.681,235.403 88.181,235.056 88.595 C 234.710 89.009,234.339 89.647,234.231 90.013 C 234.123 90.379,233.726 91.158,233.349 91.744 C 231.867 94.049,231.488 94.706,231.172 95.520 C 230.991 95.986,230.690 96.425,230.503 96.497 C 230.315 96.569,230.078 96.960,229.977 97.366 C 229.875 97.771,229.530 98.468,229.210 98.915 C 228.586 99.785,228.229 100.393,227.252 102.243 C 226.910 102.891,226.466 103.610,226.265 103.841 C 226.064 104.072,225.755 104.710,225.579 105.259 C 225.403 105.808,225.058 106.407,224.813 106.590 C 224.568 106.774,224.151 107.344,223.886 107.856 C 223.620 108.369,223.003 109.507,222.513 110.386 C 222.024 111.265,221.444 112.359,221.225 112.817 C 221.006 113.275,220.685 113.738,220.511 113.845 C 220.338 113.952,219.965 114.536,219.682 115.143 C 219.055 116.490,218.148 118.122,217.467 119.127 C 216.804 120.106,216.144 121.291,215.453 122.747 C 215.146 123.394,214.732 124.053,214.534 124.212 C 214.336 124.371,214.031 124.950,213.857 125.499 C 213.683 126.049,213.429 126.498,213.292 126.498 C 213.156 126.498,212.776 127.029,212.447 127.679 C 212.119 128.329,211.342 129.761,210.719 130.862 L 209.587 132.864 209.587 165.780 C 209.587 201.221,209.533 199.791,210.904 200.525 C 211.247 200.708,221.376 200.799,241.500 200.799 L 271.583 200.799 272.409 199.858 L 273.236 198.916 273.234 191.402 L 273.233 183.888 272.316 182.889 L 271.399 181.891 252.270 181.891 C 231.925 181.891,232.472 181.922,231.629 180.708 C 231.521 180.553,231.431 174.698,231.429 167.696 L 231.425 154.966 232.348 154.580 C 233.118 154.259,235.857 154.193,248.793 154.185 C 265.308 154.175,264.959 154.202,265.971 152.863 C 267.319 151.080,267.661 139.218,266.435 136.772 C 265.567 135.038,265.826 135.063,248.868 135.036 L 233.688 135.011 232.623 134.408 L 231.558 133.805 231.558 121.704 L 231.558 109.603 232.224 109.266 C 232.741 109.004,237.025 108.928,251.473 108.925 C 271.809 108.921,271.143 108.971,272.516 107.339 L 273.236 106.484 273.236 99.083 C 273.236 88.239,275.111 89.228,254.532 89.220 L 239.158 89.214 238.988 88.538 C 238.874 88.083,238.968 87.696,239.273 87.359 C 239.524 87.082,239.842 86.351,239.980 85.735 C 240.119 85.118,240.459 84.325,240.737 83.972 C 241.014 83.619,241.324 82.947,241.425 82.478 C 241.526 82.008,241.882 81.145,242.217 80.559 C 242.551 79.973,242.910 79.075,243.014 78.562 C 243.119 78.049,243.429 77.416,243.704 77.155 C 243.979 76.894,244.280 76.206,244.373 75.626 C 244.466 75.046,244.766 74.312,245.040 73.996 C 245.568 73.387,245.734 71.524,245.286 71.246 C 245.147 71.160,244.888 71.571,244.712 72.159 M167.776 196.005 C 167.776 196.298,167.896 196.538,168.043 196.538 C 168.189 196.538,168.309 196.298,168.309 196.005 C 168.309 195.712,168.189 195.473,168.043 195.473 C 167.896 195.473,167.776 195.712,167.776 196.005 " stroke="none" fill="#E85A4F" fill-rule="evenodd"></path><path id="path1" d="M0.000 133.156 L 0.000 266.312 200.000 266.312 L 400.000 266.312 400.000 133.156 L 400.000 0.000 200.000 0.000 L 0.000 0.000 0.000 133.156 M157.326 65.361 C 158.239 65.687,159.517 67.788,159.831 69.479 C 159.984 70.300,160.383 71.571,160.719 72.304 C 161.054 73.036,161.413 74.232,161.515 74.960 C 161.618 75.689,161.924 76.721,162.195 77.252 C 162.466 77.784,162.769 78.865,162.868 79.655 C 162.968 80.445,163.290 81.493,163.586 81.982 C 163.881 82.472,164.272 83.611,164.455 84.512 C 164.638 85.414,165.040 86.838,165.350 87.676 C 165.659 88.515,165.912 89.451,165.912 89.758 C 165.912 90.064,166.148 90.876,166.435 91.562 C 166.723 92.248,167.142 93.621,167.365 94.613 C 167.588 95.604,167.943 96.683,168.152 97.009 C 168.362 97.336,168.619 98.202,168.723 98.935 C 168.827 99.667,169.126 100.692,169.388 101.213 C 169.650 101.733,170.004 102.927,170.174 103.865 C 170.344 104.803,170.657 105.908,170.871 106.320 C 171.084 106.733,171.383 107.757,171.535 108.595 C 171.687 109.434,172.036 110.506,172.311 110.979 C 172.586 111.451,172.946 112.584,173.111 113.497 C 173.277 114.410,173.578 115.477,173.779 115.867 C 173.981 116.258,174.328 117.448,174.550 118.511 C 174.772 119.575,175.127 120.710,175.338 121.033 C 175.550 121.357,175.848 122.295,176.000 123.119 C 176.152 123.942,176.521 125.153,176.820 125.809 C 177.119 126.465,177.364 127.173,177.364 127.383 C 177.364 127.593,177.556 127.924,177.792 128.120 C 178.320 128.558,178.961 127.845,178.961 126.819 C 178.961 126.465,179.266 125.569,179.638 124.828 C 180.011 124.087,180.389 122.931,180.479 122.260 C 180.569 121.588,180.923 120.287,181.266 119.368 C 181.610 118.449,181.892 117.431,181.893 117.104 C 181.895 116.778,182.200 115.858,182.572 115.060 C 182.943 114.262,183.319 113.063,183.406 112.397 C 183.493 111.730,183.796 110.724,184.078 110.160 C 184.361 109.595,184.710 108.397,184.854 107.496 C 184.999 106.596,185.294 105.586,185.511 105.253 C 185.728 104.921,186.025 103.962,186.171 103.123 C 186.317 102.284,186.662 101.178,186.937 100.666 C 187.212 100.153,187.562 99.049,187.716 98.211 C 187.869 97.374,188.224 96.175,188.505 95.548 C 188.786 94.921,189.102 93.810,189.208 93.079 C 189.313 92.349,189.558 91.445,189.751 91.070 C 189.945 90.696,190.296 89.616,190.531 88.670 C 190.767 87.724,191.183 86.471,191.456 85.885 C 191.730 85.300,192.038 84.224,192.140 83.495 C 192.243 82.766,192.545 81.744,192.811 81.223 C 193.076 80.702,193.418 79.602,193.571 78.777 C 193.723 77.953,194.094 76.820,194.394 76.260 C 194.694 75.699,194.940 74.971,194.940 74.642 C 194.940 74.312,195.300 72.960,195.739 71.638 C 196.178 70.315,196.538 68.987,196.538 68.685 C 196.538 67.609,197.849 65.813,198.890 65.464 C 199.594 65.228,203.500 65.112,212.878 65.046 C 227.094 64.948,227.669 64.999,229.056 66.475 L 229.694 67.154 229.694 79.105 C 229.694 89.820,229.649 91.091,229.261 91.400 C 228.873 91.708,227.133 94.662,225.699 97.447 C 225.406 98.016,224.982 98.704,224.756 98.975 C 224.531 99.246,224.133 99.887,223.873 100.399 C 223.612 100.912,223.048 101.931,222.619 102.663 C 222.190 103.395,221.596 104.499,221.298 105.115 C 221.001 105.732,220.634 106.312,220.484 106.405 C 220.218 106.570,219.511 107.841,218.346 110.253 C 218.028 110.912,217.677 111.511,217.566 111.585 C 217.384 111.705,216.772 112.758,215.420 115.278 C 215.155 115.772,214.767 116.371,214.558 116.610 C 214.349 116.849,214.095 117.314,213.994 117.645 C 213.894 117.975,213.536 118.574,213.200 118.976 C 212.864 119.378,212.499 120.007,212.388 120.373 C 212.278 120.739,212.034 121.218,211.848 121.438 C 211.661 121.658,210.971 122.851,210.315 124.090 C 208.010 128.444,207.991 128.325,207.980 108.971 C 207.972 96.206,207.898 92.678,207.624 92.184 L 207.277 91.559 206.987 92.317 C 206.827 92.735,206.621 93.640,206.529 94.328 C 206.438 95.017,206.069 96.132,205.711 96.806 C 205.353 97.480,205.060 98.370,205.060 98.784 C 205.060 99.198,204.774 100.300,204.425 101.233 C 204.076 102.166,203.704 103.469,203.598 104.128 C 203.492 104.787,203.187 105.687,202.919 106.128 C 202.651 106.569,202.348 107.588,202.244 108.392 C 202.141 109.196,201.791 110.393,201.466 111.052 C 201.140 111.711,200.794 112.772,200.696 113.410 C 200.598 114.048,200.340 114.912,200.124 115.331 C 199.908 115.749,199.553 116.937,199.335 117.972 C 199.118 119.006,198.715 120.299,198.440 120.845 C 198.165 121.391,197.853 122.437,197.748 123.169 C 197.643 123.901,197.341 124.860,197.079 125.300 C 196.816 125.739,196.470 126.864,196.310 127.799 C 196.150 128.734,195.841 129.772,195.623 130.105 C 195.404 130.438,195.110 131.433,194.967 132.315 C 194.825 133.198,194.518 134.211,194.285 134.566 C 194.052 134.922,193.680 136.084,193.458 137.148 C 193.236 138.212,192.891 139.399,192.691 139.786 C 192.490 140.173,192.201 141.172,192.047 142.005 C 191.893 142.838,191.533 143.978,191.247 144.538 C 190.961 145.098,190.597 146.262,190.438 147.125 C 190.278 147.988,189.976 148.956,189.766 149.276 C 189.556 149.596,189.247 150.619,189.078 151.549 C 188.909 152.479,188.601 153.570,188.392 153.973 C 188.184 154.376,187.839 155.520,187.627 156.514 C 187.415 157.509,186.996 158.797,186.696 159.377 C 186.397 159.957,186.152 160.770,186.152 161.183 C 186.152 161.596,185.868 162.619,185.521 163.457 C 185.175 164.295,184.812 165.500,184.715 166.136 C 184.619 166.772,184.320 167.731,184.050 168.267 C 183.781 168.803,183.475 169.715,183.369 170.294 C 183.264 170.874,182.888 171.692,182.534 172.112 C 182.180 172.533,181.891 173.038,181.891 173.236 C 181.891 173.433,181.609 173.933,181.264 174.347 C 180.919 174.761,180.493 175.540,180.318 176.077 C 180.143 176.615,179.807 177.214,179.572 177.409 C 179.337 177.604,178.981 178.123,178.780 178.562 C 178.580 179.001,178.060 179.960,177.624 180.692 C 177.189 181.425,176.628 182.443,176.378 182.956 C 176.127 183.469,175.666 184.188,175.354 184.554 C 175.041 184.920,174.625 185.639,174.428 186.152 C 174.231 186.664,173.853 187.370,173.587 187.719 C 173.320 188.068,173.103 188.503,173.103 188.685 C 173.103 188.867,172.918 189.169,172.693 189.356 C 172.467 189.543,172.033 190.277,171.728 190.987 C 171.423 191.696,171.062 192.277,170.926 192.277 C 170.706 192.277,170.340 193.006,169.810 194.504 C 169.670 194.898,169.556 194.935,169.257 194.687 C 168.799 194.307,168.990 192.630,169.567 191.963 C 169.780 191.717,170.069 191.010,170.207 190.392 C 170.346 189.774,170.695 188.938,170.982 188.534 C 171.270 188.131,171.505 187.626,171.505 187.413 C 171.505 187.200,171.864 186.352,172.304 185.529 C 172.743 184.705,173.106 183.879,173.111 183.693 C 173.115 183.508,173.475 182.640,173.910 181.764 C 174.345 180.889,174.700 179.984,174.700 179.752 C 174.700 179.521,175.000 178.925,175.366 178.429 C 176.170 177.339,176.203 176.802,175.504 176.169 C 174.609 175.360,173.425 172.994,173.224 171.616 C 173.119 170.896,172.868 169.981,172.667 169.584 C 172.465 169.187,172.075 167.919,171.800 166.768 C 171.525 165.616,171.118 164.320,170.895 163.889 C 170.671 163.458,170.363 162.421,170.208 161.586 C 170.054 160.750,169.735 159.694,169.499 159.239 C 169.264 158.783,168.953 157.675,168.808 156.775 C 168.663 155.875,168.328 154.777,168.063 154.334 C 167.798 153.891,167.439 152.779,167.266 151.863 C 167.092 150.946,166.719 149.688,166.437 149.066 C 166.155 148.445,165.917 147.517,165.910 147.004 C 165.902 146.491,165.601 145.473,165.240 144.740 C 164.880 144.008,164.583 143.049,164.580 142.610 C 164.578 142.170,164.282 141.181,163.924 140.411 C 163.565 139.641,163.138 138.276,162.976 137.377 C 162.813 136.479,162.516 135.491,162.316 135.182 C 162.116 134.873,161.773 133.842,161.554 132.889 C 161.334 131.937,160.910 130.619,160.610 129.960 C 160.310 129.301,160.059 128.402,160.051 127.963 C 160.043 127.523,159.742 126.565,159.382 125.832 C 159.021 125.100,158.724 124.141,158.722 123.702 C 158.719 123.262,158.426 122.279,158.072 121.518 C 157.717 120.756,157.347 119.557,157.250 118.855 C 157.153 118.152,156.803 117.037,156.472 116.378 C 156.141 115.719,155.788 114.646,155.686 113.993 C 155.585 113.340,155.275 112.293,154.998 111.667 C 154.721 111.041,154.411 109.957,154.310 109.259 C 154.208 108.561,153.900 107.544,153.626 106.999 C 153.352 106.455,152.993 105.376,152.829 104.603 C 152.665 103.829,152.320 102.776,152.063 102.264 C 151.806 101.751,151.509 100.792,151.404 100.133 C 151.298 99.474,150.986 98.413,150.709 97.776 C 150.432 97.139,150.077 95.874,149.918 94.966 C 149.436 92.195,148.777 91.929,148.315 94.319 C 148.193 94.954,148.087 113.221,148.081 134.914 L 148.069 174.355 147.467 175.249 C 146.627 176.495,146.522 176.508,137.204 176.538 C 127.903 176.568,127.583 176.514,126.876 174.824 C 126.312 173.473,126.307 68.082,126.872 66.732 C 127.240 65.850,127.912 65.475,129.694 65.157 C 130.871 64.948,156.702 65.138,157.326 65.361 M245.539 72.412 C 245.539 73.016,245.339 73.651,245.040 73.996 C 244.766 74.312,244.466 75.046,244.373 75.626 C 244.280 76.206,243.979 76.894,243.704 77.155 C 243.429 77.416,243.119 78.049,243.014 78.562 C 242.910 79.075,242.551 79.973,242.217 80.559 C 241.882 81.145,241.526 82.008,241.425 82.478 C 241.324 82.947,241.014 83.619,240.737 83.972 C 240.459 84.325,240.119 85.118,239.980 85.735 C 239.842 86.351,239.524 87.082,239.273 87.359 C 238.968 87.696,238.874 88.083,238.988 88.538 L 239.158 89.214 254.532 89.220 C 275.111 89.228,273.236 88.239,273.236 99.083 L 273.236 106.484 272.516 107.339 C 271.143 108.971,271.809 108.921,251.473 108.925 C 237.025 108.928,232.741 109.004,232.224 109.266 L 231.558 109.603 231.558 121.704 L 231.558 133.805 232.623 134.408 L 233.688 135.011 248.868 135.036 C 265.826 135.063,265.567 135.038,266.435 136.772 C 267.661 139.218,267.319 151.080,265.971 152.863 C 264.959 154.202,265.308 154.175,248.793 154.185 C 235.857 154.193,233.118 154.259,232.348 154.580 L 231.425 154.966 231.429 167.696 C 231.431 174.698,231.521 180.553,231.629 180.708 C 232.472 181.922,231.925 181.891,252.270 181.891 L 271.399 181.891 272.316 182.889 L 273.233 183.888 273.234 191.402 L 273.236 198.916 272.409 199.858 L 271.583 200.799 241.500 200.799 C 221.376 200.799,211.247 200.708,210.904 200.525 C 209.533 199.791,209.587 201.221,209.587 165.780 L 209.587 132.864 210.719 130.862 C 211.342 129.761,212.119 128.329,212.447 127.679 C 212.776 127.029,213.156 126.498,213.292 126.498 C 213.429 126.498,213.683 126.049,213.857 125.499 C 214.031 124.950,214.336 124.371,214.534 124.212 C 214.732 124.053,215.146 123.394,215.453 122.747 C 216.144 121.291,216.804 120.106,217.467 119.127 C 218.148 118.122,219.055 116.490,219.682 115.143 C 219.965 114.536,220.338 113.952,220.511 113.845 C 220.685 113.738,221.006 113.275,221.225 112.817 C 221.444 112.359,222.024 111.265,222.513 110.386 C 223.003 109.507,223.620 108.369,223.886 107.856 C 224.151 107.344,224.568 106.774,224.813 106.590 C 225.058 106.407,225.403 105.808,225.579 105.259 C 225.755 104.710,226.064 104.072,226.265 103.841 C 226.466 103.610,226.910 102.891,227.252 102.243 C 228.229 100.393,228.586 99.785,229.210 98.915 C 229.530 98.468,229.875 97.771,229.977 97.366 C 230.078 96.960,230.315 96.569,230.503 96.497 C 230.690 96.425,230.991 95.986,231.172 95.520 C 231.488 94.706,231.867 94.049,233.349 91.744 C 233.726 91.158,234.123 90.379,234.231 90.013 C 234.339 89.647,234.710 89.009,235.056 88.595 C 235.403 88.181,235.686 87.681,235.686 87.483 C 235.686 87.286,235.963 86.786,236.303 86.372 C 236.642 85.958,237.164 85.140,237.462 84.554 C 237.760 83.968,238.218 83.069,238.481 82.557 C 238.743 82.044,239.166 81.385,239.422 81.092 C 239.677 80.799,239.976 80.260,240.086 79.893 C 240.196 79.527,240.569 78.889,240.915 78.475 C 241.261 78.061,241.545 77.561,241.545 77.364 C 241.545 77.166,241.836 76.658,242.193 76.234 C 242.550 75.810,242.924 75.135,243.025 74.734 C 243.125 74.332,243.474 73.829,243.800 73.616 C 244.126 73.403,244.536 72.747,244.712 72.159 C 245.097 70.876,245.539 71.012,245.539 72.412 M168.309 196.005 C 168.309 196.298,168.189 196.538,168.043 196.538 C 167.896 196.538,167.776 196.298,167.776 196.005 C 167.776 195.712,167.896 195.473,168.043 195.473 C 168.189 195.473,168.309 195.712,168.309 196.005 " stroke="none" fill="#3e3e3e" fill-rule="evenodd"></path></g></svg>